<?xml version="1.0" encoding="UTF-8"?>
<svg id="Layer_1" data-name="Layer 1" xmlns="http://www.w3.org/2000/svg" viewBox="0 0 500 344.6">
  <defs>
    <style>
      .cls-1 {
        fill: #16d67f;
      }
    </style>
  </defs>
  <g>
    <path class="cls-1" d="M377.36,229.08c-31.36,0-56.78-25.42-56.78-56.78h0c0-31.36,25.42-56.78,56.78-56.78h76.84V33.91c0-18.73-15.18-33.91-33.91-33.91H33.91C15.18,0,0,15.18,0,33.91v276.78c0,18.73,15.18,33.91,33.91,33.91h386.38c18.73,0,33.91-15.18,33.91-33.91v-81.61h-76.84Z"/>
    <path class="cls-1" d="M456.06,128.36h-77.02c-24.27,0-43.94,19.67-43.94,43.94h0c0,24.27,19.67,43.94,43.94,43.94h77.02c24.27,0,43.94-19.67,43.94-43.94h0c0-24.27-19.67-43.94-43.94-43.94ZM377.29,194.65c-12.34,0-22.35-10.01-22.35-22.35s10.01-22.35,22.35-22.35,22.35,10.01,22.35,22.35-10.01,22.35-22.35,22.35Z"/>
  </g>
  <g>
    <path d="M96.75,212.87c1.19-1.19,2.82-1.88,4.55-1.88h156.95c2.87,0,4.3,3.46,2.27,5.49l-31,31c-1.19,1.19-2.82,1.88-4.55,1.88H68.02c-2.87,0-4.3-3.46-2.27-5.49l31-31Z"/>
    <path d="M96.75,97.11c1.24-1.19,2.87-1.88,4.55-1.88h156.95c2.87,0,4.3,3.46,2.27,5.49l-31,31c-1.19,1.19-2.82,1.88-4.55,1.88H68.02c-2.87,0-4.3-3.46-2.27-5.49l31-31Z"/>
    <path d="M229.52,154.62c-1.19-1.19-2.82-1.88-4.55-1.88H68.02c-2.87,0-4.3,3.46-2.27,5.49l31,31c1.19,1.19,2.82,1.88,4.55,1.88h156.95c2.87,0,4.3-3.46,2.27-5.49l-31-31Z"/>
  </g>
</svg>